<svg width="256" height="256" viewBox="0 0 256 256" xmlns="http://www.w3.org/2000/svg">
    <!-- 背景 -->
    <rect width="256" height="256" rx="60" fill="#1e3a8a" />
    <rect x="8" y="8" width="240" height="240" rx="52" fill="#2563eb" />
    
    <!-- 地図 -->
    <path d="M 40 180 L 40 90 L 100 70 L 160 90 L 220 70 L 220 160 L 160 180 L 100 160 Z" fill="none" stroke="#93c5fd" stroke-width="16" stroke-linejoin="round" />
    <path d="M 100 70 L 100 160" fill="none" stroke="#93c5fd" stroke-width="16" stroke-linejoin="round" />
    <path d="M 160 90 L 160 180" fill="none" stroke="#93c5fd" stroke-width="16" stroke-linejoin="round" />
    
    <!-- ピン -->
    <path d="M 130 150 C 160 110 170 90 170 70 C 170 47.9 152.1 30 130 30 C 107.9 30 90 47.9 90 70 C 90 90 100 110 130 150 Z" fill="#ef4444" stroke="white" stroke-width="12" stroke-linejoin="round" />
    <circle cx="130" cy="70" r="16" fill="white" />
</svg>
